<svg width="1200" height="630" viewBox="0 0 1200 630" xmlns="http://www.w3.org/2000/svg">
<defs>
  <radialGradient id="bgGlow" cx="35%" cy="40%" r="70%">
    <stop offset="0%" stop-color="#1a4a55" stop-opacity="1"/>
    <stop offset="55%" stop-color="#0f3540" stop-opacity="1"/>
    <stop offset="100%" stop-color="#0a2a32" stop-opacity="1"/>
  </radialGradient>
  <linearGradient id="cardGrad" x1="0%" y1="0%" x2="100%" y2="100%">
    <stop offset="0%" stop-color="#ffffff" stop-opacity="0.08"/>
    <stop offset="100%" stop-color="#ffffff" stop-opacity="0.03"/>
  </linearGradient>
</defs>

<rect x="0" y="0" width="1200" height="630" fill="url(#bgGlow)"/>

<circle cx="950" cy="180" r="140" fill="#c9a961" opacity="0.04"/>
<circle cx="1050" cy="500" r="180" fill="#1a5a6a" opacity="0.3"/>
<circle cx="100" cy="550" r="120" fill="#1a5a6a" opacity="0.25"/>

<g transform="translate(80, 70)">
  <rect x="0" y="3" width="22" height="28" fill="#c9a961" rx="2"/>
  <rect x="7" y="0" width="22" height="28" fill="#7eb87e" rx="2" opacity="0.85"/>
  <rect x="14" y="-3" width="22" height="28" fill="#5b9bd5" rx="2" opacity="0.85"/>
  <text x="50" y="20" font-family="Georgia, 'Times New Roman', serif" font-size="22" font-weight="700" fill="#f0e3c4" letter-spacing="0.3">eHomeworkMarket</text>
</g>

<text x="80" y="240" font-family="Georgia, 'Times New Roman', serif" font-size="84" font-weight="700" fill="#f0e3c4" letter-spacing="-1.5">
  <tspan x="80" y="240">Tutoring,</tspan>
  <tspan x="80" y="320">done</tspan>
</text>
<text x="80" y="400" font-family="Georgia, 'Times New Roman', serif" font-size="84" font-weight="700" font-style="italic" fill="#c9a961" letter-spacing="-1.5">thoughtfully.</text>

<text x="80" y="455" font-family="Georgia, 'Times New Roman', serif" font-size="20" fill="#a8c4cc" letter-spacing="0.3">
  <tspan x="80" y="455">Real help. Real experts.</tspan>
  <tspan x="80" y="485">Try us before you commit.</tspan>
</text>

<rect x="80" y="525" width="450" height="80" rx="10" fill="url(#cardGrad)" stroke="#c9a961" stroke-width="0.5" stroke-opacity="0.3"/>

<g transform="translate(110, 555)">
  <circle cx="0" cy="0" r="18" fill="#c9a961" opacity="0.15"/>
  <circle cx="0" cy="0" r="18" fill="none" stroke="#c9a961" stroke-width="1.2"/>
  <text x="0" y="6" text-anchor="middle" font-family="Georgia, serif" font-size="16" font-weight="700" fill="#c9a961">$</text>
  <text x="32" y="-4" font-family="Georgia, serif" font-size="11" fill="#7a9aa2" letter-spacing="2.5" font-weight="600">FROM</text>
  <text x="32" y="14" font-family="Georgia, serif" font-size="20" font-weight="700" fill="#f0e3c4" letter-spacing="0.2">$10</text>
</g>

<line x1="240" y1="540" x2="240" y2="595" stroke="#c9a961" stroke-width="0.5" opacity="0.25"/>

<g transform="translate(270, 555)">
  <circle cx="0" cy="0" r="18" fill="#c9a961" opacity="0.15"/>
  <circle cx="0" cy="0" r="18" fill="none" stroke="#c9a961" stroke-width="1.2"/>
  <text x="0" y="5" text-anchor="middle" font-family="Georgia, serif" font-size="14" fill="#c9a961">★</text>
  <text x="32" y="-4" font-family="Georgia, serif" font-size="11" fill="#7a9aa2" letter-spacing="2.5" font-weight="600">SUBJECTS</text>
  <text x="32" y="14" font-family="Georgia, serif" font-size="20" font-weight="700" fill="#f0e3c4" letter-spacing="0.2">12+</text>
</g>

<line x1="400" y1="540" x2="400" y2="595" stroke="#c9a961" stroke-width="0.5" opacity="0.25"/>

<g transform="translate(430, 555)">
  <circle cx="0" cy="0" r="18" fill="#c9a961" opacity="0.15"/>
  <circle cx="0" cy="0" r="18" fill="none" stroke="#c9a961" stroke-width="1.2"/>
  <text x="0" y="5" text-anchor="middle" font-family="Georgia, serif" font-size="13" fill="#c9a961">⏱</text>
  <text x="32" y="-4" font-family="Georgia, serif" font-size="11" fill="#7a9aa2" letter-spacing="2.5" font-weight="600">DELIVERY</text>
  <text x="32" y="14" font-family="Georgia, serif" font-size="14" font-weight="700" fill="#f0e3c4" letter-spacing="0.2">Within 1 hr</text>
</g>

<g transform="translate(700, 130)">
  <text font-family="Georgia, serif" font-size="11" fill="#c9a961" letter-spacing="3.5" font-weight="600">HOW IT WORKS</text>
  <line x1="0" y1="14" x2="40" y2="14" stroke="#c9a961" stroke-width="1.5"/>
</g>

<g transform="translate(700, 200)">
  <circle cx="22" cy="22" r="22" fill="none" stroke="#c9a961" stroke-width="1.2" opacity="0.7"/>
  <text x="22" y="29" text-anchor="middle" font-family="Georgia, serif" font-size="20" fill="#c9a961">📖</text>
  <text x="68" y="20" font-family="Georgia, serif" font-size="20" font-weight="700" fill="#f0e3c4">Browse the library</text>
  <text x="68" y="44" font-family="Georgia, serif" font-size="14" fill="#a8c4cc" opacity="0.85">Find readymade solutions across subjects</text>
</g>

<g transform="translate(700, 285)">
  <circle cx="22" cy="22" r="22" fill="none" stroke="#c9a961" stroke-width="1.2" opacity="0.7"/>
  <text x="22" y="29" text-anchor="middle" font-family="Georgia, serif" font-size="18" fill="#c9a961">✎</text>
  <text x="68" y="20" font-family="Georgia, serif" font-size="20" font-weight="700" fill="#f0e3c4">Or post your assignment</text>
  <text x="68" y="44" font-family="Georgia, serif" font-size="14" fill="#a8c4cc" opacity="0.85">An expert tutor responds personally</text>
</g>

<g transform="translate(700, 370)">
  <circle cx="22" cy="22" r="22" fill="#c9a961" opacity="0.18"/>
  <circle cx="22" cy="22" r="22" fill="none" stroke="#c9a961" stroke-width="1.5"/>
  <text x="22" y="29" text-anchor="middle" font-family="Georgia, serif" font-size="18" fill="#c9a961">🎁</text>
  <text x="68" y="20" font-family="Georgia, serif" font-size="20" font-weight="700" fill="#f0e3c4">First one is on us</text>
  <text x="68" y="44" font-family="Georgia, serif" font-size="14" fill="#a8c4cc" opacity="0.85">New students get their first work free</text>
</g>

<line x1="700" y1="465" x2="1100" y2="465" stroke="#c9a961" stroke-width="0.5" opacity="0.25"/>

<text x="700" y="500" font-family="Georgia, serif" font-size="11" fill="#c9a961" letter-spacing="3.5" font-weight="600">SUBJECTS WE COVER</text>
<text x="700" y="528" font-family="Georgia, serif" font-size="14" fill="#f0e3c4" letter-spacing="0.3" opacity="0.9">Nursing  ·  Business  ·  Psychology  ·  CS  ·  Stats  ·  +7 more</text>

<g transform="translate(700, 570)">
  <rect x="0" y="-22" width="240" height="50" rx="6" fill="#c9a961"/>
  <text x="120" y="9" text-anchor="middle" font-family="Georgia, serif" font-size="17" font-weight="700" fill="#0f3540" letter-spacing="0.5">Get Started →</text>
</g>

<text x="975" y="585" font-family="Georgia, serif" font-size="13" fill="#7a9aa2" letter-spacing="1.5">ehomeworkmarket.com</text>
</svg>